<svg width="898" height="784" viewBox="0 0 898 784" fill="none" xmlns="http://www.w3.org/2000/svg">
<path d="M608.197 2.87091C693.391 18.1141 754.892 96.0314 806.214 171.329C857.537 246.626 900.007 319.342 897.386 396.127C894.765 472.911 848.026 552.861 790 628.995C731.222 704.874 661.733 776.721 587.17 782.743C512.032 788.982 431.997 729.866 373.962 685.587C315.927 641.307 279.317 612.08 220.536 581.52C161.002 550.706 78.8998 519.248 35.0612 455.111C-8.60026 391.445 -14.2184 296.258 37.306 229.022C88.2552 162.002 196.347 122.933 304.747 79.4479C413.899 36.2169 523.181 -11.9014 608.197 2.87091Z" fill="#259F80" fill-opacity="0.45"/>
</svg>
