<svg class="animated" id="freepik_stories-printer" xmlns="http://www.w3.org/2000/svg" viewBox="0 0 500 500" version="1.1" xmlns:xlink="http://www.w3.org/1999/xlink" xmlns:svgjs="http://svgjs.com/svgjs"><style>svg#freepik_stories-printer:not(.animated) .animable {opacity: 0;}svg#freepik_stories-printer.animated #freepik--Shadow--inject-7 {animation: 1s 1 forwards cubic-bezier(.36,-0.01,.5,1.38) zoomIn;animation-delay: 0s;}svg#freepik_stories-printer.animated #freepik--Character--inject-7 {animation: 1s 1 forwards cubic-bezier(.36,-0.01,.5,1.38) lightSpeedLeft;animation-delay: 0s;}svg#freepik_stories-printer.animated #freepik--Setups--inject-7 {animation: 1s 1 forwards cubic-bezier(.36,-0.01,.5,1.38) slideLeft;animation-delay: 0s;}svg#freepik_stories-printer.animated #freepik--Device--inject-7 {animation: 1s 1 forwards cubic-bezier(.36,-0.01,.5,1.38) slideRight;animation-delay: 0s;}svg#freepik_stories-printer.animated #freepik--Desk--inject-7 {animation: 1s 1 forwards cubic-bezier(.36,-0.01,.5,1.38) slideUp;animation-delay: 0s;}            @keyframes zoomIn {                0% {                    opacity: 0;                    transform: scale(0.5);                }                100% {                    opacity: 1;                    transform: scale(1);                }            }                    @keyframes lightSpeedLeft {              from {                transform: translate3d(-50%, 0, 0) skewX(20deg);                opacity: 0;              }              60% {                transform: skewX(-10deg);                opacity: 1;              }              80% {                transform: skewX(2deg);              }              to {                opacity: 1;                transform: translate3d(0, 0, 0);              }            }                    @keyframes slideLeft {                0% {                    opacity: 0;                    transform: translateX(-30px);                }                100% {                    opacity: 1;                    transform: translateX(0);                }            }                    @keyframes slideRight {                0% {                    opacity: 0;                    transform: translateX(30px);                }                100% {                    opacity: 1;                    transform: translateX(0);                }            }                    @keyframes slideUp {                0% {                    opacity: 0;                    transform: translateY(30px);                }                100% {                    opacity: 1;                    transform: inherit;                }            }        </style><g id="freepik--Shadow--inject-7" class="animable" style="transform-origin: 245.18px 412.39px;"><ellipse id="freepik--path--inject-7" cx="245.18" cy="412.39" rx="193.89" ry="11.32" style="fill: rgb(245, 245, 245); transform-origin: 245.18px 412.39px;" class="animable"></ellipse></g><g id="freepik--Character--inject-7" class="animable" style="transform-origin: 381.892px 247.589px;"><path d="M373.34,158.83l-12.5,20L336,191.93l-9.94,3.1a3.14,3.14,0,0,0-1.74,1.34s-5.47,7.48-5.84,10.37c-.09.75,2.49-.46,3-1,1.08-1.1,3.44-4.41,3.44-4.41s5,2.32,6.72,2.17c1.91-.16,5.38-2.22,6.78-3.53a42.64,42.64,0,0,0,3-3.8s22.33-6.08,28-11c4.5-3.89,11.83-20.67,11.83-20.67Z" style="fill: rgb(206, 122, 99); transform-origin: 349.864px 182.904px;" id="eldmmlqpo9x4s" class="animable"></path>

<path d="M386.09,141s-7.6,1.61-17.95,19.63l13.64,7.66S393.81,143.75,386.09,141Z" style="fill: rgb(38, 50, 56); transform-origin: 378.408px 154.645px;" id="ela6vbzeg9nbb" class="animable"></path><path d="M368.35,159.82l13.55,7.81a1.35,1.35,0,0,1,.55,1.76l-.54,1.12a1.36,1.36,0,0,1-1.88.59l-13.74-7.64a1.35,1.35,0,0,1-.52-1.85l.72-1.28A1.36,1.36,0,0,1,368.35,159.82Z" style="fill: rgb(38, 50, 56); transform-origin: 374.088px 165.455px;" id="el0vg0773otuk" class="animable"></path><g id="elz4ee5hlv5lb"><path d="M368.35,159.82l13.55,7.81a1.35,1.35,0,0,1,.55,1.76l-.54,1.12a1.36,1.36,0,0,1-1.88.59l-13.74-7.64a1.35,1.35,0,0,1-.52-1.85l.72-1.28A1.36,1.36,0,0,1,368.35,159.82Z" style="opacity: 0.8; transform-origin: 374.088px 165.455px;" class="animable"></path></g><g id="el3ve7c2rxpid"><path d="M381.78,168.26s2.13-4.35,4-9.59l-.48-2.15L379.46,149a87.44,87.44,0,0,0-7.33,13.86Z" style="opacity: 0.2; transform-origin: 378.955px 158.63px;" class="animable"></path></g><path d="M441,380.9c.65,8.58,1,14.19,1,14.19l-9.5,1.41s-1.11-5.77-2.78-14.63Z" style="fill: rgb(206, 122, 99); transform-origin: 435.86px 388.7px;" id="ellc0yxsxxv2" class="animable"></path><path d="M428,394c-1.19,0-2.42-.14-2.83-.64a.84.84,0,0,1,0-1,1.14,1.14,0,0,1,.7-.55c1.58-.5,5,1.29,5.12,1.37a.23.23,0,0,1,.12.23.26.26,0,0,1-.18.2A17.82,17.82,0,0,1,428,394Zm-1.58-1.81a1.55,1.55,0,0,0-.43.07.65.65,0,0,0-.44.33c-.15.29-.09.42,0,.5.46.6,2.87.54,4.64.26A10.57,10.57,0,0,0,426.4,392.18Z" style="fill: rgb(37, 159, 128); transform-origin: 428.058px 392.861px;" id="el1abiesiz643" class="animable"></path><path d="M430.86,393.61h-.1c-1.16-.47-3.52-2.46-3.36-3.54,0-.26.2-.58.82-.67a1.68,1.68,0,0,1,1.28.35c1.25.95,1.59,3.52,1.61,3.64a.25.25,0,0,1-.1.21A.2.2,0,0,1,430.86,393.61Zm-2.47-3.78h-.13c-.41.05-.43.21-.44.27,0,.65,1.52,2.22,2.73,2.88a5.34,5.34,0,0,0-1.37-2.89,1.12,1.12,0,0,0-.79-.25Z" style="fill: rgb(37, 159, 128); transform-origin: 429.251px 391.502px;" id="eljx28d4xh9o" class="animable"></path><path d="M431.82,392.25l10.43-.36a.85.85,0,0,1,.84.63l2.17,8.42a1.4,1.4,0,0,1-1,1.71,1.45,1.45,0,0,1-.29,0c-3.76.06-7.11,0-11.79.14-5.52.18-4.1.8-10.59,1.11-3.91.18-4.77-4.24-3.12-4.51,7.56-1.21,8.27-3.53,11.1-6.35A3.36,3.36,0,0,1,431.82,392.25Z" style="fill: rgb(38, 50, 56); transform-origin: 431.49px 397.898px;" id="eljvs2he96dsh" class="animable"></path><g id="elvfupmwnsfl"><path d="M441,380.9l-11.24,1c.24,1.32.48,2.55.7,3.72l10.83-.75C441.17,383.61,441.07,382.3,441,380.9Z" style="opacity: 0.2; transform-origin: 435.525px 383.26px;" class="animable"></path></g><path d="M393.12,379.26c-.87,8.56-1.47,14.16-1.47,14.16l-9.6-.28s-.08-5.89-.17-14.9Z" style="fill: rgb(206, 122, 99); transform-origin: 387.5px 385.83px;" id="elr6qzdq6r1f" class="animable"></path><path d="M377.72,391.46c-1.19,0-2.43-.15-2.83-.65a.83.83,0,0,1,0-1,1.14,1.14,0,0,1,.69-.55c1.59-.49,5,1.32,5.12,1.4a.24.24,0,0,1,.12.24.25.25,0,0,1-.18.19A16.76,16.76,0,0,1,377.72,391.46Zm-1.58-1.82a2.14,2.14,0,0,0-.43.07.65.65,0,0,0-.43.33c-.16.29-.1.42,0,.5.46.61,2.87.55,4.64.29A10.49,10.49,0,0,0,376.14,389.64Z" style="fill: rgb(37, 159, 128); transform-origin: 377.772px 390.318px;" id="elcsdpszobgys" class="animable"></path><path d="M380.59,391.11a.14.14,0,0,1-.09,0c-1.16-.47-3.51-2.48-3.34-3.56,0-.26.21-.58.83-.66a1.67,1.67,0,0,1,1.27.35c1.24,1,1.57,3.53,1.59,3.65a.23.23,0,0,1-.1.21A.22.22,0,0,1,380.59,391.11Zm-2.44-3.81H378c-.41,0-.43.21-.44.26,0,.65,1.51,2.23,2.71,2.9a5.25,5.25,0,0,0-1.35-2.89,1.19,1.19,0,0,0-.79-.27Z" style="fill: rgb(37, 159, 128); transform-origin: 379.001px 388.997px;" id="elk0giby6on0p" class="animable"></path><path d="M381.57,389.74l10.42-.29a.83.83,0,0,1,.84.63l2.12,8.43a1.4,1.4,0,0,1-1,1.71,1.35,1.35,0,0,1-.29,0c-3.76,0-7.11-.07-11.79.07-5.52.15-4.1.77-10.59,1.05-3.91.16-4.75-4.27-3.1-4.53,7.57-1.17,8.29-3.49,11.14-6.29A3.43,3.43,0,0,1,381.57,389.74Z" style="fill: rgb(38, 50, 56); transform-origin: 381.188px 395.397px;" id="elg4phrmhk9ov" class="animable"></path><g id="elq961flug72"><path d="M381.93,382.53l10.81.46c.12-1.17.25-2.41.38-3.73l-11.24-1C381.9,379.77,381.91,381.19,381.93,382.53Z" style="opacity: 0.2; transform-origin: 387.5px 380.625px;" class="animable"></path></g><path d="M376.51,222.22l.66,65.33,3.71,88.72,14.35,1.56a296.49,296.49,0,0,0,5.25-50.74c.17-10.62-2.31-21.24-2.3-31,0-7.2,2.51-12.54,5-28.34,2.4-15,4.82-32.91,5.14-45.86Z" style="fill: rgb(37, 159, 128); transform-origin: 392.415px 299.86px;" id="elyykyqrnj8" class="animable"></path><g id="elpzbxzw6outp"><path d="M405,256.19l-2.23-8.62-5.21-1.07s-1.11,25.62,1.41,42.5c.93-4.87,2.6-10.75,4.28-21.25C403.81,264,404.41,260.14,405,256.19Z" style="opacity: 0.2; transform-origin: 401.158px 267.75px;" class="animable"></path></g><path d="M393.11,222.22l13.14,72.22,22.32,87.33,13.13-1a390.15,390.15,0,0,0-5.19-52.6c-2.15-12.27-7-24.17-9.45-35.06-1.66-7.4-.66-13.44-1.33-30.29-.52-13.06.72-28.15-3.73-40.62Z" style="fill: rgb(37, 159, 128); transform-origin: 417.405px 301.985px;" id="elkog2jkgepl9" class="animable"></path><path d="M375.85,167.22c1.67-18,5-29,20.67-28.33s31-1,28.33,20.33-1,63.9-1,63.9H375.52s.42-15.32.5-32.16C376.06,182.15,375.28,173.41,375.85,167.22Z" style="fill: rgb(38, 50, 56); transform-origin: 400.337px 180.991px;" id="elmxc2bm6119c" class="animable"></path><path d="M391.54,139.12c4.38-.79,5.87-2.49,5.46-6.21a21.45,21.45,0,0,0-.45-2.76l6.81-5.69,5-4.14c-1.35,6.05-2.05,18.72,1.57,19.6-1.7,1.49-3.31,4.15-5.62,5.29-2.06,1-5,1.21-7.75,1.21-1.83-.25-3.84-.7-4.58-1.71C390.33,142.47,391.54,139.12,391.54,139.12Z" style="fill: rgb(206, 122, 99); transform-origin: 400.521px 133.37px;" id="el1r28mkpedtr" class="animable"></path><g id="el9b1sxr92aba"><path d="M396.55,130.15a21.45,21.45,0,0,1,.45,2.76c2.56-.5,6.4-2.78,6.75-5.66a12,12,0,0,0-.39-2.79Z" style="opacity: 0.2; isolation: isolate; transform-origin: 400.15px 128.685px;" class="animable"></path></g><path d="M407.84,108.08c1,8.17,2.07,12.89-1.24,17.9-4.91,7.53-15.47,6-18.88-1.69-3.11-6.86-4.2-19.08,3-24a10.88,10.88,0,0,1,17.1,7.76Z" style="fill: rgb(206, 122, 99); transform-origin: 397.078px 114.601px;" id="elfuwq5v5s2vc" class="animable"></path><path d="M396,113.06c.13.67-.12,1.27-.55,1.36s-.87-.36-1-1,.12-1.27.54-1.36S395.91,112.41,396,113.06Z" style="fill: rgb(38, 50, 56); transform-origin: 395.225px 113.24px;" id="elnesfuglys8p" class="animable"></path><path d="M388.36,114.52c.13.66-.12,1.27-.54,1.35s-.87-.36-1-1,.12-1.27.55-1.36S388.24,113.86,388.36,114.52Z" style="fill: rgb(38, 50, 56); transform-origin: 387.59px 114.689px;" id="elz62s3gbxq4f" class="animable"></path><path d="M391.37,114.43a25.09,25.09,0,0,1-1.7,5.42,3.48,3.48,0,0,0,2.86,0Z" style="fill: rgb(186, 77, 60); transform-origin: 391.1px 117.294px;" id="eluxbiodrkei" class="animable"></path><path d="M397,109.36a.33.33,0,0,0,.11-.15.38.38,0,0,0-.21-.5h0a3.81,3.81,0,0,0-3.5.31.38.38,0,0,0-.07.54h0a.38.38,0,0,0,.54.08,3,3,0,0,1,2.78-.24A.37.37,0,0,0,397,109.36Z" style="fill: rgb(38, 50, 56); transform-origin: 395.194px 109.071px;" id="el549gjo96r5e" class="animable"></path><path d="M388.53,110.07a.51.51,0,0,0,.07-.17.38.38,0,0,0-.33-.43h0a3.79,3.79,0,0,0-3.3,1.18.36.36,0,0,0,.06.53h0a.39.39,0,0,0,.55-.05,2.94,2.94,0,0,1,2.62-.93A.37.37,0,0,0,388.53,110.07Z" style="fill: rgb(38, 50, 56); transform-origin: 386.742px 110.353px;" id="elouwayim37ak" class="animable"></path><path d="M406.63,116.23s-2.08,0-2.5-3.67a19.41,19.41,0,0,0-1.92-6.42s-4.83,0-6.58-2.41c0,0-11.86,6.44-15.67,1.83-3.58-4.33,4.9-4.83,4.9-4.83s-4.06-4.59-1.65-6.75,8.5,1.41,8.5,1.41-1.29-4.58,3.52-4.08,6.07,3.83,6.07,3.83,6.5-2.58,9.25.84c1.78,2.21-.95,4.58-.95,4.58s3.61.11,4.53,3.17c.75,2.5-1.8,4.28-2.58,4.83-2.28,1.58-2.7,9.75-2.7,9.75Z" style="fill: rgb(38, 50, 56); transform-origin: 396.672px 104.791px;" id="elg50c22wdxgc" class="animable"></path><path d="M384.67,103.06s-5.69,2.71-4.56,6.45,4.92,3,6.16,2c1.52-1.28,3.92-6.91,3.92-6.91Z" style="fill: rgb(38, 50, 56); transform-origin: 385.076px 107.69px;" id="el6c6ibpdu4t" class="animable"></path><path d="M412.35,115a8.72,8.72,0,0,1-3.19,5c-2.07,1.53-3.64-.32-3.53-2.92.11-2.34,1.31-6,3.6-6.43S412.91,112.46,412.35,115Z" style="fill: rgb(206, 122, 99); transform-origin: 409.049px 115.576px;" id="elcisa4qdsewr" class="animable"></path><path d="M397,122.49a6.76,6.76,0,0,0,1-.63.22.22,0,0,0,.05-.3h0a.2.2,0,0,0-.29,0,5.76,5.76,0,0,1-5.07,1,.21.21,0,0,0-.27.12.22.22,0,0,0,.12.28A6,6,0,0,0,397,122.49Z" style="fill: rgb(38, 50, 56); transform-origin: 395.247px 122.344px;" id="el0e3ip73p0b8" class="animable"></path><path d="M393.29,138.52a.16.16,0,0,1,.16.24c-.85,1.37-4.06,7.23,3.44,7.34,8,.12,12-6.19,12.48-7a.15.15,0,0,1,.15-.07l2.15.21a.34.34,0,0,1,.29.39,19.89,19.89,0,0,1-8.44,12.26,7.88,7.88,0,0,0-6.84-5.08c-5.25-.34-9.41,3.91-9.41,3.91s-1.65-7.09,3.62-11.8a.34.34,0,0,1,.19-.09Z" style="fill: rgb(38, 50, 56); transform-origin: 399.495px 145.204px;" id="eltz2ofb882lo" class="animable"></path><g id="elejzu9z2p3lf"><path d="M393.29,138.52a.16.16,0,0,1,.16.24c-.85,1.37-4.06,7.23,3.44,7.34,8,.12,12-6.19,12.48-7a.15.15,0,0,1,.15-.07l2.15.21a.34.34,0,0,1,.29.39,19.89,19.89,0,0,1-8.44,12.26,7.88,7.88,0,0,0-6.84-5.08c-5.25-.34-9.41,3.91-9.41,3.91s-1.65-7.09,3.62-11.8a.34.34,0,0,1,.19-.09Z" style="opacity: 0.8; transform-origin: 399.495px 145.204px;" class="animable"></path></g><g id="elvc09iwjn27m"><path d="M415,151s-.53,22.44,8.44,30.83c.19-8.36.6-16.42,1.37-22.57a35.13,35.13,0,0,0,.29-5L420.79,151Z" style="opacity: 0.2; transform-origin: 420.049px 166.415px;" class="animable"></path></g><path d="M419.9,169s-12.23-26.9-3.26-27.55,17.75,17.84,17.75,17.84Z" style="fill: rgb(38, 50, 56); transform-origin: 423.871px 155.217px;" id="elynjamcdh7a9" class="animable"></path><path d="M422.1,166.6s5.88,15.37,7,24.68a201.81,201.81,0,0,1-5,29.6s-4,4.4-4.81,7.84-2,4.74,2,6.21,7,.16,8.5-1.8.82-11.77.82-11.77,7.84-23.54,8.33-31.87-8-29.1-8-29.1Z" style="fill: rgb(206, 122, 99); transform-origin: 428.717px 197.975px;" id="elrf8j98makzl" class="animable"></path><path d="M418.4,167.48l.83,2.13a1,1,0,0,0,1.46.47l14.66-9.79a1,1,0,0,0,.29-1.32l-1.18-2a1,1,0,0,0-1.39-.31l-14.3,9.62A1,1,0,0,0,418.4,167.48Z" style="fill: rgb(38, 50, 56); transform-origin: 427.052px 163.367px;" id="el6qqc10pidac" class="animable"></path><g id="elv3419yz9eon"><path d="M418.4,167.48l.83,2.13a1,1,0,0,0,1.46.47l14.66-9.79a1,1,0,0,0,.29-1.32l-1.18-2a1,1,0,0,0-1.39-.31l-14.3,9.62A1,1,0,0,0,418.4,167.48Z" style="opacity: 0.8; transform-origin: 427.052px 163.367px;" class="animable"></path></g><polygon points="444.38 380.91 427.11 382.63 425.65 376.93 444.69 375.03 444.38 380.91" style="fill: rgb(37, 159, 128); transform-origin: 435.17px 378.83px;" id="elzfyjx2845p" class="animable"></polygon><g id="eli8qkaq6yfg"><polygon points="444.38 380.91 427.11 382.63 425.65 376.93 444.69 375.03 444.38 380.91" style="opacity: 0.3; transform-origin: 435.17px 378.83px;" class="animable"></polygon></g><polygon points="396.59 379.77 379.56 379.04 378.76 373.23 397.89 374.05 396.59 379.77" style="fill: rgb(37, 159, 128); transform-origin: 388.325px 376.5px;" id="elvvdqy97xble" class="animable"></polygon><g id="el54zeuzankm"><polygon points="396.59 379.77 379.56 379.04 378.76 373.23 397.89 374.05 396.59 379.77" style="opacity: 0.3; transform-origin: 388.325px 376.5px;" class="animable"></polygon></g></g><g id="freepik--Setups--inject-7" class="animable" style="transform-origin: 303.913px 143.175px;"><path d="M345.64,159.64a3.81,3.81,0,0,1-3.85,4.22h-2.57l-7.36,8.07-8.78-8.07H310.67a4.7,4.7,0,0,1-4.59-4.22l-2.72-31.12a3.8,3.8,0,0,1,3.85-4.21h31.12a4.69,4.69,0,0,1,4.58,4.21Z" style="fill: none; stroke: rgb(37, 159, 128); stroke-miterlimit: 10; transform-origin: 324.5px 148.12px;" id="el552ji009btu" class="animable"></path><g id="elp87avwah0hc"><ellipse cx="330.43" cy="149.01" rx="9.43" ry="10.29" style="fill: rgb(37, 159, 128); transform-origin: 330.43px 149.01px; transform: rotate(-46.25deg);" class="animable"></ellipse></g><g id="el5wt5th7h6p"><ellipse cx="320.58" cy="149.01" rx="9.43" ry="10.29" style="fill: rgb(37, 159, 128); transform-origin: 320.58px 149.01px; transform: rotate(-46.25deg);" class="animable"></ellipse></g><path d="M314.79,139.16A11,11,0,0,0,325.5,149a8.89,8.89,0,0,0,9-9.85,11,11,0,0,0-10.71-9.85A8.89,8.89,0,0,0,314.79,139.16Z" style="fill: rgb(37, 159, 128); transform-origin: 324.644px 139.15px;" id="ela1wfkobe84c" class="animable"></path><g id="elc3ulc98e5sh"><ellipse cx="330.43" cy="149.01" rx="9.43" ry="10.29" style="fill: rgb(255, 255, 255); opacity: 0.3; transform-origin: 330.43px 149.01px; transform: rotate(-46.25deg);" class="animable"></ellipse></g><g id="eln98j5j8xpxh"><ellipse cx="320.58" cy="149.01" rx="9.43" ry="10.29" style="opacity: 0.2; transform-origin: 320.58px 149.01px; transform: rotate(-46.25deg);" class="animable"></ellipse></g><g id="elsq8a0gen27s"><path d="M314.79,139.16A11,11,0,0,0,325.5,149a8.89,8.89,0,0,0,9-9.85,11,11,0,0,0-10.71-9.85A8.89,8.89,0,0,0,314.79,139.16Z" style="fill: rgb(255, 255, 255); opacity: 0.6; transform-origin: 324.644px 139.15px;" class="animable"></path></g><path d="M298.88,145.53a2.84,2.84,0,0,1-2.88,3.15h-3.07l-6.14,6.73-7.32-6.73H268.06a3.52,3.52,0,0,1-3.44-3.15l-2.44-27.95a2.85,2.85,0,0,1,2.88-3.16H293a3.53,3.53,0,0,1,3.43,3.16Z" style="fill: none; stroke: rgb(37, 159, 128); stroke-miterlimit: 10; transform-origin: 280.53px 134.915px;" id="elq7hx3p2cf7p" class="animable"></path><path d="M291.22,131h-3.74a7.87,7.87,0,0,0-7-6.42l-.33-3.74a.65.65,0,0,0-.63-.58.53.53,0,0,0-.53.58l.33,3.74a6.32,6.32,0,0,0-5.86,6.42h-3.74a.52.52,0,0,0-.52.58.64.64,0,0,0,.63.58h3.73a7.88,7.88,0,0,0,7,6.42l.33,3.74a.65.65,0,0,0,.63.58.52.52,0,0,0,.53-.58l-.33-3.74a6.31,6.31,0,0,0,5.86-6.42h3.74a.52.52,0,0,0,.53-.58A.65.65,0,0,0,291.22,131Zm-4.9,0H285a5.05,5.05,0,0,0-4.23-3.89l-.12-1.37A6.6,6.6,0,0,1,286.32,131Zm-6.42,0h-2.72a3,3,0,0,1,2.48-2.72Zm.1,1.16.24,2.72a3.74,3.74,0,0,1-2.95-2.72Zm1.16,0h2.72a3,3,0,0,1-2.48,2.72Zm-.1-1.16-.24-2.72a3.8,3.8,0,0,1,3,2.72Zm-1.62-5.26.12,1.37A4,4,0,0,0,276,131h-1.37A5.28,5.28,0,0,1,279.44,125.71Zm-4.7,6.42h1.37a5.06,5.06,0,0,0,4.23,3.89l.12,1.37A6.58,6.58,0,0,1,274.74,132.13Zm6.88,5.26L281.5,136a4,4,0,0,0,3.56-3.89h1.36A5.26,5.26,0,0,1,281.62,137.39Z" style="fill: rgb(37, 159, 128); transform-origin: 280.525px 131.58px;" id="elrr6qhadf1jr" class="animable"></path><g id="ell8ee4lhag7"><path d="M291.22,131h-3.74a7.87,7.87,0,0,0-7-6.42l-.33-3.74a.65.65,0,0,0-.63-.58.53.53,0,0,0-.53.58l.33,3.74a6.32,6.32,0,0,0-5.86,6.42h-3.74a.52.52,0,0,0-.52.58.64.64,0,0,0,.63.58h3.73a7.88,7.88,0,0,0,7,6.42l.33,3.74a.65.65,0,0,0,.63.58.52.52,0,0,0,.53-.58l-.33-3.74a6.31,6.31,0,0,0,5.86-6.42h3.74a.52.52,0,0,0,.53-.58A.65.65,0,0,0,291.22,131Zm-4.9,0H285a5.05,5.05,0,0,0-4.23-3.89l-.12-1.37A6.6,6.6,0,0,1,286.32,131Zm-6.42,0h-2.72a3,3,0,0,1,2.48-2.72Zm.1,1.16.24,2.72a3.74,3.74,0,0,1-2.95-2.72Zm1.16,0h2.72a3,3,0,0,1-2.48,2.72Zm-.1-1.16-.24-2.72a3.8,3.8,0,0,1,3,2.72Zm-1.62-5.26.12,1.37A4,4,0,0,0,276,131h-1.37A5.28,5.28,0,0,1,279.44,125.71Zm-4.7,6.42h1.37a5.06,5.06,0,0,0,4.23,3.89l.12,1.37A6.58,6.58,0,0,1,274.74,132.13Zm6.88,5.26L281.5,136a4,4,0,0,0,3.56-3.89h1.36A5.26,5.26,0,0,1,281.62,137.39Z" style="fill: rgb(37, 159, 128); opacity: 0.5; transform-origin: 280.525px 131.58px;" class="animable"></path></g><path d="M266.15,123.78h0a.75.75,0,0,1-.73-.67l-.52-6h6a.76.76,0,0,1,.74.68h0a.61.61,0,0,1-.62.67h-4.61l.4,4.62A.61.61,0,0,1,266.15,123.78Z" style="fill: rgb(37, 159, 128); transform-origin: 268.271px 120.446px;" id="el11sqptkth4a" class="animable"></path><path d="M287.07,117.82h0a.6.6,0,0,1,.61-.68h6l.53,6a.61.61,0,0,1-.62.67h0a.75.75,0,0,1-.73-.67l-.41-4.62H287.8A.75.75,0,0,1,287.07,117.82Z" style="fill: rgb(37, 159, 128); transform-origin: 290.639px 120.475px;" id="el4zezzxqqh9t" class="animable"></path><path d="M294.91,139.32h0a.75.75,0,0,1,.73.68l.53,6h-6a.75.75,0,0,1-.73-.67h0a.61.61,0,0,1,.62-.68h4.61l-.41-4.61A.62.62,0,0,1,294.91,139.32Z" style="fill: rgb(37, 159, 128); transform-origin: 292.803px 142.659px;" id="el54xt4q0swhu" class="animable"></path><path d="M274,145.29h0a.61.61,0,0,1-.62.67h-6l-.52-6a.61.61,0,0,1,.61-.68h0a.76.76,0,0,1,.74.68l.4,4.61h4.61A.75.75,0,0,1,274,145.29Z" style="fill: rgb(37, 159, 128); transform-origin: 270.429px 142.62px;" id="elss1u6mlqdw" class="animable"></path><g id="el243at0i392k"><g style="opacity: 0.5; transform-origin: 268.271px 120.446px;" class="animable"><path d="M266.15,123.78h0a.75.75,0,0,1-.73-.67l-.52-6h6a.76.76,0,0,1,.74.68h0a.61.61,0,0,1-.62.67h-4.61l.4,4.62A.61.61,0,0,1,266.15,123.78Z" style="fill: rgb(37, 159, 128); transform-origin: 268.271px 120.446px;" id="elgn41hc3bryu" class="animable"></path></g></g><g id="elok5y6exjwc8"><g style="opacity: 0.5; transform-origin: 290.639px 120.475px;" class="animable"><path d="M287.07,117.82h0a.6.6,0,0,1,.61-.68h6l.53,6a.61.61,0,0,1-.62.67h0a.75.75,0,0,1-.73-.67l-.41-4.62H287.8A.75.75,0,0,1,287.07,117.82Z" style="fill: rgb(37, 159, 128); transform-origin: 290.639px 120.475px;" id="elszz4trw650f" class="animable"></path></g></g><g id="elzqthwk55o4"><g style="opacity: 0.5; transform-origin: 292.803px 142.659px;" class="animable"><path d="M294.91,139.32h0a.75.75,0,0,1,.73.68l.53,6h-6a.75.75,0,0,1-.73-.67h0a.61.61,0,0,1,.62-.68h4.61l-.41-4.61A.62.62,0,0,1,294.91,139.32Z" style="fill: rgb(37, 159, 128); transform-origin: 292.803px 142.659px;" id="elw7d18lo30ns" class="animable"></path></g></g><g id="elok2q7xsg6"><g style="opacity: 0.5; transform-origin: 270.429px 142.62px;" class="animable"><path d="M274,145.29h0a.61.61,0,0,1-.62.67h-6l-.52-6a.61.61,0,0,1,.61-.68h0a.76.76,0,0,1,.74.68l.4,4.61h4.61A.75.75,0,0,1,274,145.29Z" style="fill: rgb(37, 159, 128); transform-origin: 270.429px 142.62px;" id="eleze3o4g5p7s" class="animable"></path></g></g></g><g id="freepik--Device--inject-7" class="animable" style="transform-origin: 267.575px 280.255px;"><rect x="213.56" y="281.84" width="164.36" height="124.97" style="fill: rgb(37, 159, 128); transform-origin: 295.74px 344.325px;" id="elm9elia2zd6k" class="animable"></rect><g id="elv7fw75aed3"><rect x="213.56" y="281.84" width="164.36" height="124.97" style="fill: rgb(255, 255, 255); opacity: 0.8; transform-origin: 295.74px 344.325px;" class="animable"></rect></g><rect x="156.9" y="281.84" width="67.37" height="124.97" style="fill: rgb(37, 159, 128); transform-origin: 190.585px 344.325px;" id="elglgcyhlsav8" class="animable"></rect><g id="elpt0hsd6f5bp"><rect x="156.9" y="281.84" width="67.37" height="124.97" style="fill: rgb(255, 255, 255); opacity: 0.7; transform-origin: 190.585px 344.325px;" class="animable"></rect></g><rect x="237.23" y="296.82" width="128.17" height="29.64" style="fill: rgb(37, 159, 128); transform-origin: 301.315px 311.64px;" id="el2ayw1iww7vj" class="animable"></rect><g id="el5vo8bi93ji3"><rect x="237.23" y="296.82" width="128.17" height="29.64" style="fill: rgb(255, 255, 255); opacity: 0.7; transform-origin: 301.315px 311.64px;" class="animable"></rect></g><rect x="237.23" y="330.62" width="128.17" height="29.64" style="fill: rgb(37, 159, 128); transform-origin: 301.315px 345.44px;" id="ell6ylz8ywm9" class="animable"></rect><g id="elkysebuvt9pp"><rect x="237.23" y="330.62" width="128.17" height="29.64" style="fill: rgb(255, 255, 255); opacity: 0.7; transform-origin: 301.315px 345.44px;" class="animable"></rect></g><rect x="237.23" y="364.41" width="128.17" height="29.64" style="fill: rgb(37, 159, 128); transform-origin: 301.315px 379.23px;" id="eldoxoey0f029" class="animable"></rect><g id="elc9xqbhozcaq"><rect x="237.23" y="364.41" width="128.17" height="29.64" style="fill: rgb(255, 255, 255); opacity: 0.7; transform-origin: 301.315px 379.23px;" class="animable"></rect></g><path d="M309.26,303.72h-15.9a5.65,5.65,0,0,1-5.33-3.8l-1.08-3.1h28.72l-1.08,3.1A5.64,5.64,0,0,1,309.26,303.72Z" style="fill: rgb(37, 159, 128); transform-origin: 301.31px 300.27px;" id="el7mx2nn6f92t" class="animable"></path><g id="el0q593h1osud"><path d="M309.26,303.72h-15.9a5.65,5.65,0,0,1-5.33-3.8l-1.08-3.1h28.72l-1.08,3.1A5.64,5.64,0,0,1,309.26,303.72Z" style="fill: rgb(255, 255, 255); opacity: 0.5; transform-origin: 301.31px 300.27px;" class="animable"></path></g><path d="M309.73,296.82l-1.08,3.1a5.65,5.65,0,0,1-5.33,3.8h5.94a5.64,5.64,0,0,0,5.33-3.8l1.08-3.1Z" style="fill: rgb(37, 159, 128); transform-origin: 309.495px 300.27px;" id="elh74tnv4btya" class="animable"></path><g id="elxo9zqe3flyl"><path d="M309.73,296.82l-1.08,3.1a5.65,5.65,0,0,1-5.33,3.8h5.94a5.64,5.64,0,0,0,5.33-3.8l1.08-3.1Z" style="fill: rgb(255, 255, 255); opacity: 0.6; transform-origin: 309.495px 300.27px;" class="animable"></path></g><path d="M309.26,337.52h-15.9a5.65,5.65,0,0,1-5.33-3.8l-1.08-3.1h28.72l-1.08,3.1A5.64,5.64,0,0,1,309.26,337.52Z" style="fill: rgb(37, 159, 128); transform-origin: 301.31px 334.07px;" id="el9f1856zehwo" class="animable"></path><g id="elfecdum62gxm"><path d="M309.26,337.52h-15.9a5.65,5.65,0,0,1-5.33-3.8l-1.08-3.1h28.72l-1.08,3.1A5.64,5.64,0,0,1,309.26,337.52Z" style="fill: rgb(255, 255, 255); opacity: 0.5; transform-origin: 301.31px 334.07px;" class="animable"></path></g><path d="M309.73,330.62l-1.08,3.1a5.65,5.65,0,0,1-5.33,3.8h5.94a5.64,5.64,0,0,0,5.33-3.8l1.08-3.1Z" style="fill: rgb(37, 159, 128); transform-origin: 309.495px 334.07px;" id="elhv8oi8o7clw" class="animable"></path><g id="elxqnhhmtnby"><path d="M309.73,330.62l-1.08,3.1a5.65,5.65,0,0,1-5.33,3.8h5.94a5.64,5.64,0,0,0,5.33-3.8l1.08-3.1Z" style="fill: rgb(255, 255, 255); opacity: 0.6; transform-origin: 309.495px 334.07px;" class="animable"></path></g><path d="M309.26,371.32h-15.9a5.65,5.65,0,0,1-5.33-3.8L287,364.41h28.72l-1.08,3.11A5.64,5.64,0,0,1,309.26,371.32Z" style="fill: rgb(37, 159, 128); transform-origin: 301.36px 367.865px;" id="elvg6nt4eagnh" class="animable"></path><g id="eltwuifr2tluj"><path d="M309.26,371.32h-15.9a5.65,5.65,0,0,1-5.33-3.8L287,364.41h28.72l-1.08,3.11A5.64,5.64,0,0,1,309.26,371.32Z" style="fill: rgb(255, 255, 255); opacity: 0.5; transform-origin: 301.36px 367.865px;" class="animable"></path></g><path d="M309.73,364.41l-1.08,3.11a5.65,5.65,0,0,1-5.33,3.8h5.94a5.64,5.64,0,0,0,5.33-3.8l1.08-3.11Z" style="fill: rgb(37, 159, 128); transform-origin: 309.495px 367.865px;" id="el1t8wzau0e6k" class="animable"></path><g id="elsd5x2ud5g1j"><path d="M309.73,364.41l-1.08,3.11a5.65,5.65,0,0,1-5.33,3.8h5.94a5.64,5.64,0,0,0,5.33-3.8l1.08-3.11Z" style="fill: rgb(255, 255, 255); opacity: 0.6; transform-origin: 309.495px 367.865px;" class="animable"></path></g><rect x="227.33" y="281.84" width="154.34" height="6.76" style="fill: rgb(37, 159, 128); transform-origin: 304.5px 285.22px;" id="eltotnci3ymlf" class="animable"></rect><g id="elpp3ks0yfttm"><rect x="227.33" y="281.84" width="154.34" height="6.76" style="fill: rgb(255, 255, 255); opacity: 0.9; transform-origin: 304.5px 285.22px;" class="animable"></rect></g><rect x="153.15" y="281.84" width="76.58" height="6.76" style="fill: rgb(37, 159, 128); transform-origin: 191.44px 285.22px;" id="el9q71il9s8dc" class="animable"></rect><g id="elxo3edimryxk"><rect x="153.15" y="281.84" width="76.58" height="6.76" style="fill: rgb(255, 255, 255); opacity: 0.8; transform-origin: 191.44px 285.22px;" class="animable"></rect></g><g id="eluivkjsh18ri"><path d="M292.84,281.67h64.78a0,0,0,0,1,0,0v24.83a6.6,6.6,0,0,1-6.6,6.6H302.38a9.54,9.54,0,0,1-9.54-9.54V281.67A0,0,0,0,1,292.84,281.67Z" style="opacity: 0.1; transform-origin: 325.23px 297.385px;" class="animable"></path></g><path d="M297.47,218.45h.86a1.55,1.55,0,0,0,1.57-1.87l-7.49-47.29a2.27,2.27,0,0,0-2.17-1.87H174.45l8.08,51Z" style="fill: rgb(38, 50, 56); transform-origin: 237.192px 192.935px;" id="el00z82m6lpgzd" class="animable"></path><g id="elrlv1dnwprir"><path d="M297.47,218.45h.86a1.55,1.55,0,0,0,1.57-1.87l-7.49-47.29a2.27,2.27,0,0,0-2.17-1.87H174.45l8.08,51Z" style="fill: rgb(255, 255, 255); opacity: 0.5; transform-origin: 237.192px 192.935px;" class="animable"></path></g><path d="M183,218.45h0a2.8,2.8,0,0,1-2.67-2.3l-7.35-46.43a1.91,1.91,0,0,1,1.93-2.3h0a2.81,2.81,0,0,1,2.67,2.3l7.35,46.43A1.92,1.92,0,0,1,183,218.45Z" style="fill: rgb(38, 50, 56); transform-origin: 178.954px 192.935px;" id="elnb3h09tosag" class="animable"></path><g id="elat32rtam3ns"><path d="M183,218.45h0a2.8,2.8,0,0,1-2.67-2.3l-7.35-46.43a1.91,1.91,0,0,1,1.93-2.3h0a2.81,2.81,0,0,1,2.67,2.3l7.35,46.43A1.92,1.92,0,0,1,183,218.45Z" style="fill: rgb(255, 255, 255); opacity: 0.2; transform-origin: 178.954px 192.935px;" class="animable"></path></g><path d="M343.07,281.76H194.28l8.5-75.22h138.6a9.1,9.1,0,0,1,9,10.12Z" style="fill: rgb(37, 159, 128); transform-origin: 272.359px 244.15px;" id="elcjhu3nh48rg" class="animable"></path><g id="elfdve3rmgqbr"><path d="M341.38,206.54H205.2V215H350.45A9.1,9.1,0,0,0,341.38,206.54Z" style="fill: rgb(255, 255, 255); opacity: 0.2; transform-origin: 277.825px 210.77px;" class="animable"></path></g><path d="M210.4,281.76H169.66v-67.6a7.62,7.62,0,0,1,7.62-7.62h31.43a9.1,9.1,0,0,1,9,10.12Z" style="fill: rgb(37, 159, 128); transform-origin: 193.714px 244.15px;" id="elqyebyu9mn8" class="animable"></path><g id="elxwuyldm64n"><path d="M210.4,281.76H169.66v-67.6a7.62,7.62,0,0,1,7.62-7.62h31.43a9.1,9.1,0,0,1,9,10.12Z" style="opacity: 0.4; transform-origin: 193.714px 244.15px;" class="animable"></path></g><polygon points="333.66 279.14 336.35 255.34 224.57 255.34 221.88 279.14 333.66 279.14" style="fill: rgb(38, 50, 56); transform-origin: 279.115px 267.24px;" id="eltwopqruyew" class="animable"></polygon><path d="M267.25,275.31H380.32A1.71,1.71,0,0,1,382,277v.41a1.71,1.71,0,0,1-1.71,1.71H267.25a0,0,0,0,1,0,0v-3.83a0,0,0,0,1,0,0Z" style="fill: rgb(38, 50, 56); transform-origin: 324.625px 277.205px;" id="elvztxticspt" class="animable"></path><g id="elzhclapetvhd"><path d="M267.25,275.31H380.32A1.71,1.71,0,0,1,382,277v.41a1.71,1.71,0,0,1-1.71,1.71H267.25a0,0,0,0,1,0,0v-3.83a0,0,0,0,1,0,0Z" style="fill: rgb(255, 255, 255); opacity: 0.1; transform-origin: 324.625px 277.205px;" class="animable"></path></g><path d="M334.09,275.31h30.55a8.07,8.07,0,0,0-8.07-8.07H335Z" style="fill: rgb(38, 50, 56); transform-origin: 349.365px 271.275px;" id="el1v5brlj5v4h" class="animable"></path><g id="elhb0zlrs08ur"><path d="M334.09,275.31h30.55a8.07,8.07,0,0,0-8.07-8.07H335Z" style="fill: rgb(255, 255, 255); opacity: 0.3; transform-origin: 349.365px 271.275px;" class="animable"></path></g><g id="elvfhjj5qcdug"><polygon points="201.07 206.54 270.53 206.54 265.82 167.42 196.35 167.42 201.07 206.54" style="opacity: 0.1; transform-origin: 233.44px 186.98px;" class="animable"></polygon></g><path d="M316.15,275.3a13.15,13.15,0,0,0,13.32-14.88,13.14,13.14,0,0,1,13.31-14.88H279.1a13.15,13.15,0,0,0-13.32,14.88,13.15,13.15,0,0,1-13.32,14.88Z" style="fill: rgb(37, 159, 128); transform-origin: 297.62px 260.42px;" id="elh3r7ly2zkx8" class="animable"></path><g id="elgbtjzyjkp6v"><path d="M316.15,275.3a13.15,13.15,0,0,0,13.32-14.88,13.14,13.14,0,0,1,13.31-14.88H279.1a13.15,13.15,0,0,0-13.32,14.88,13.15,13.15,0,0,1-13.32,14.88Z" style="fill: rgb(255, 255, 255); opacity: 0.7; transform-origin: 297.62px 260.42px;" class="animable"></path></g><path d="M373.24,302.51a10.92,10.92,0,0,1-10.6-9.59l-3.41-32.5a16.94,16.94,0,0,0-16.45-14.88H279.1a16.93,16.93,0,0,1,16.44,14.88l3.42,32.5a10.9,10.9,0,0,0,10.6,9.59Z" style="fill: rgb(37, 159, 128); transform-origin: 326.17px 274.025px;" id="eljym8xa8ts8c" class="animable"></path><g id="elq0e073pj9b"><path d="M373.24,302.51a10.92,10.92,0,0,1-10.6-9.59l-3.41-32.5a16.94,16.94,0,0,0-16.45-14.88H279.1a16.93,16.93,0,0,1,16.44,14.88l3.42,32.5a10.9,10.9,0,0,0,10.6,9.59Z" style="fill: rgb(255, 255, 255); opacity: 0.9; transform-origin: 326.17px 274.025px;" class="animable"></path></g><path d="M373.24,302.51a8.47,8.47,0,0,0,8.58-9.59H318.13a8.47,8.47,0,0,1-8.58,9.59Z" style="fill: rgb(37, 159, 128); transform-origin: 345.722px 297.716px;" id="el5ade32ayxl8" class="animable"></path><g id="elmbciog6d2c8"><path d="M373.24,302.51a8.47,8.47,0,0,0,8.58-9.59H318.13a8.47,8.47,0,0,1-8.58,9.59Z" style="fill: rgb(255, 255, 255); opacity: 0.6; transform-origin: 345.722px 297.716px;" class="animable"></path></g><path d="M270.93,275.31h-8.61a8.07,8.07,0,0,0-8.08-8.07h-31l-.91,8.07-.43,3.83h49.05a1.45,1.45,0,0,0,1.45-1.45v-.92A1.45,1.45,0,0,0,270.93,275.31Z" style="fill: rgb(38, 50, 56); transform-origin: 247.15px 273.19px;" id="elaege53maz1s" class="animable"></path><g id="elyaqla4hmd9d"><path d="M270.93,275.31h-8.61a8.07,8.07,0,0,0-8.08-8.07h-31l-.91,8.07-.43,3.83h49.05a1.45,1.45,0,0,0,1.45-1.45v-.92A1.45,1.45,0,0,0,270.93,275.31Z" style="fill: rgb(255, 255, 255); opacity: 0.3; transform-origin: 247.15px 273.19px;" class="animable"></path></g><rect x="158.31" y="242.59" width="45.68" height="39.17" style="fill: rgb(37, 159, 128); transform-origin: 181.15px 262.175px;" id="ell4opy9qwnrh" class="animable"></rect><rect x="158.31" y="242.59" width="6.69" height="39.17" style="fill: rgb(37, 159, 128); transform-origin: 161.655px 262.175px;" id="elyfuqn5iyzk" class="animable"></rect><g id="elbi712x99j7n"><rect x="158.31" y="242.59" width="6.69" height="39.17" style="fill: rgb(255, 255, 255); opacity: 0.2; transform-origin: 161.655px 262.175px;" class="animable"></rect></g><rect x="158.31" y="268.15" width="6.69" height="13.62" style="fill: rgb(38, 50, 56); transform-origin: 161.655px 274.96px;" id="eluevpx08cnvf" class="animable"></rect><rect x="185.07" y="242.59" width="18.92" height="39.17" style="fill: rgb(37, 159, 128); transform-origin: 194.53px 262.175px;" id="eldu52bwlubwt" class="animable"></rect><g id="eligo90m90vcb"><rect x="185.07" y="242.59" width="18.92" height="39.17" style="fill: rgb(255, 255, 255); opacity: 0.7; transform-origin: 194.53px 262.175px;" class="animable"></rect></g><rect x="185.07" y="259.92" width="18.92" height="21.84" style="fill: rgb(37, 159, 128); transform-origin: 194.53px 270.84px;" id="elno376h6c8s" class="animable"></rect><rect x="178.38" y="242.59" width="6.69" height="39.17" style="fill: rgb(37, 159, 128); transform-origin: 181.725px 262.175px;" id="el3tx48lvkjxk" class="animable"></rect><g id="el1us0cyp3rx1"><rect x="178.38" y="242.59" width="6.69" height="39.17" style="fill: rgb(255, 255, 255); opacity: 0.5; transform-origin: 181.725px 262.175px;" class="animable"></rect></g><rect x="178.38" y="259.92" width="6.69" height="21.84" style="fill: rgb(37, 159, 128); transform-origin: 181.725px 270.84px;" id="elqrvj98d1lae" class="animable"></rect><g id="el1u4v0q303v4"><rect x="178.38" y="259.92" width="6.69" height="21.84" style="opacity: 0.2; transform-origin: 181.725px 270.84px;" class="animable"></rect></g><rect x="171.69" y="242.59" width="6.69" height="39.17" style="fill: rgb(37, 159, 128); transform-origin: 175.035px 262.175px;" id="elxs31u69ce1h" class="animable"></rect><g id="elp1sh19jevt9"><rect x="171.69" y="242.59" width="6.69" height="39.17" style="fill: rgb(255, 255, 255); opacity: 0.4; transform-origin: 175.035px 262.175px;" class="animable"></rect></g><rect x="171.69" y="264.74" width="6.69" height="17.02" style="fill: rgb(37, 159, 128); transform-origin: 175.035px 273.25px;" id="eljv9s3f11fn" class="animable"></rect><g id="eln16qd9o2sk"><rect x="171.69" y="264.74" width="6.69" height="17.02" style="opacity: 0.4; transform-origin: 175.035px 273.25px;" class="animable"></rect></g><rect x="165" y="242.59" width="6.69" height="39.17" style="fill: rgb(37, 159, 128); transform-origin: 168.345px 262.175px;" id="eldwd2gcyrb4s" class="animable"></rect><g id="el57bfdvhtse3"><rect x="165" y="242.59" width="6.69" height="39.17" style="fill: rgb(255, 255, 255); opacity: 0.3; transform-origin: 168.345px 262.175px;" class="animable"></rect></g><rect x="165" y="262.18" width="6.69" height="19.59" style="fill: rgb(37, 159, 128); transform-origin: 168.345px 271.975px;" id="elewm4f5ae2vm" class="animable"></rect><g id="el1x811b17nqu"><rect x="165" y="262.18" width="6.69" height="19.59" style="opacity: 0.6; transform-origin: 168.345px 271.975px;" class="animable"></rect></g><path d="M183.5,277.84a1.62,1.62,0,0,1-3.23,0c0-.89,1.61-2.89,1.61-2.89S183.5,277,183.5,277.84Z" style="fill: rgb(255, 255, 255); transform-origin: 181.885px 277.141px;" id="el7ych8eoi8m" class="animable"></path><path d="M182.86,278a.52.52,0,0,1-.52.52c-.29,0-.11-.23-.11-.52s-.18-.52.11-.52A.52.52,0,0,1,182.86,278Z" style="fill: rgb(37, 159, 128); transform-origin: 182.517px 278px;" id="elayvdaeoo4m" class="animable"></path><path d="M176.64,277.84a1.61,1.61,0,1,1-3.22,0c0-.89,1.61-2.89,1.61-2.89S176.64,277,176.64,277.84Z" style="fill: rgb(255, 255, 255); transform-origin: 175.03px 277.2px;" id="elewjjpabomrc" class="animable"></path><path d="M176,278a.52.52,0,0,1-.52.52c-.29,0-.11-.23-.11-.52s-.18-.52.11-.52A.52.52,0,0,1,176,278Z" style="fill: rgb(37, 159, 128); transform-origin: 175.657px 278px;" id="elpajg2x2j16" class="animable"></path><path d="M169.35,277.84a1.61,1.61,0,1,1-3.22,0c0-.89,1.61-2.89,1.61-2.89S169.35,277,169.35,277.84Z" style="fill: rgb(255, 255, 255); transform-origin: 167.74px 277.2px;" id="elv9bxbyga03l" class="animable"></path><path d="M168.71,278a.52.52,0,0,1-.52.52c-.29,0-.11-.23-.11-.52s-.18-.52.11-.52A.52.52,0,0,1,168.71,278Z" style="fill: rgb(37, 159, 128); transform-origin: 168.367px 278px;" id="eleo0n0tz46s7" class="animable"></path><path d="M163.27,277.84a1.62,1.62,0,0,1-3.23,0c0-.89,1.62-2.89,1.62-2.89S163.27,277,163.27,277.84Z" style="fill: rgb(255, 255, 255); transform-origin: 161.655px 277.141px;" id="elqwv911zx3ro" class="animable"></path><path d="M162.63,278a.52.52,0,0,1-.52.52c-.29,0-.11-.23-.11-.52s-.18-.52.11-.52A.52.52,0,0,1,162.63,278Z" style="fill: rgb(37, 159, 128); transform-origin: 162.287px 278px;" id="elfjfp36su0s" class="animable"></path><polygon points="276.86 206.54 207.39 206.54 199.02 153.7 268.49 153.7 276.86 206.54" style="fill: rgb(37, 159, 128); transform-origin: 237.94px 180.12px;" id="elo8qespoxj2s" class="animable"></polygon><g id="elniuk54m6uch"><polygon points="276.86 206.54 207.39 206.54 199.02 153.7 268.49 153.7 276.86 206.54" style="fill: rgb(255, 255, 255); opacity: 0.9; transform-origin: 237.94px 180.12px;" class="animable"></polygon></g><path d="M234.73,212H334a9.09,9.09,0,0,0-8.33-5.45H226.39A9.11,9.11,0,0,1,234.73,212Z" style="fill: rgb(37, 159, 128); transform-origin: 280.195px 209.275px;" id="elkwfdrokglvr" class="animable"></path><g id="elku20b4eizkb"><path d="M234.73,212H334a9.09,9.09,0,0,0-8.33-5.45H226.39A9.11,9.11,0,0,1,234.73,212Z" style="fill: rgb(255, 255, 255); opacity: 0.5; transform-origin: 280.195px 209.275px;" class="animable"></path></g><path d="M344.86,268.58c-6.21-1.24-11.53-3.17-10.77-6s9.71,5.61,10.79,0-13.7-4.41-7.93-8.52c3.19-2.27,3.17-5.82,2.51-8.54h-8.78c-.47,2.25.32,4.71-1.3,5s-2.38-2.5-3.44-5h-6.26c.83,3.89,6.76,9,3.48,11.25-4.32,3-12.94-14.45-17.75-6.83s15.42,11.23,13.4,15.45S303,260,304,268.58s17.84,4.79,17.84,4.79L318,279.84l2.29,1.82,2-5.58c2.23-5.38,3.77-1.21,5.56,1.36,5.76,8.25,19.79,3.41,8.27-2.27s-7.19-6.15,2.92-1.8S351.07,269.82,344.86,268.58Z" style="fill: rgb(37, 159, 128); transform-origin: 326.181px 263.684px;" id="el4uvr219z0mr" class="animable"></path><g id="elyxj1ml5llvc"><path d="M344.86,268.58c-6.21-1.24-11.53-3.17-10.77-6s9.71,5.61,10.79,0-13.7-4.41-7.93-8.52c3.19-2.27,3.17-5.82,2.51-8.54h-8.78c-.47,2.25.32,4.71-1.3,5s-2.38-2.5-3.44-5h-6.26c.83,3.89,6.76,9,3.48,11.25-4.32,3-12.94-14.45-17.75-6.83s15.42,11.23,13.4,15.45S303,260,304,268.58s17.84,4.79,17.84,4.79L318,279.84l2.29,1.82,2-5.58c2.23-5.38,3.77-1.21,5.56,1.36,5.76,8.25,19.79,3.41,8.27-2.27s-7.19-6.15,2.92-1.8S351.07,269.82,344.86,268.58Z" style="fill: rgb(255, 255, 255); opacity: 0.2; transform-origin: 326.181px 263.684px;" class="animable"></path></g></g><g id="freepik--Desk--inject-7" class="animable" style="transform-origin: 123.546px 329.034px;"><path d="M98,408.07H79.63a6.49,6.49,0,0,1-6.48-6.48V324.46h31.34v77.13A6.49,6.49,0,0,1,98,408.07ZM77.15,328.46v73.13a2.49,2.49,0,0,0,2.48,2.48H98a2.49,2.49,0,0,0,2.48-2.48V328.46Z" style="fill: rgb(37, 159, 128); transform-origin: 88.82px 366.265px;" id="elv5w4phjqx88" class="animable"></path><g id="elyekqfb0rezr"><g style="opacity: 0.3; transform-origin: 88.82px 366.265px;" class="animable"><path d="M98,408.07H79.63a6.49,6.49,0,0,1-6.48-6.48V324.46h31.34v77.13A6.49,6.49,0,0,1,98,408.07ZM77.15,328.46v73.13a2.49,2.49,0,0,0,2.48,2.48H98a2.49,2.49,0,0,0,2.48-2.48V328.46Z" style="fill: rgb(37, 159, 128); transform-origin: 88.82px 366.265px;" id="elgow8mcewc8l" class="animable"></path></g></g><path d="M167.68,408.07H149.31a6.49,6.49,0,0,1-6.48-6.48V324.46h31.33v77.13A6.48,6.48,0,0,1,167.68,408.07Zm-20.85-79.61v73.13a2.48,2.48,0,0,0,2.48,2.48h18.37a2.48,2.48,0,0,0,2.48-2.48V328.46Z" style="fill: rgb(37, 159, 128); transform-origin: 158.495px 366.265px;" id="elfjm8ldruvgm" class="animable"></path><g id="elqvvm3ss39tc"><g style="opacity: 0.3; transform-origin: 158.495px 366.265px;" class="animable"><path d="M167.68,408.07H149.31a6.49,6.49,0,0,1-6.48-6.48V324.46h31.33v77.13A6.48,6.48,0,0,1,167.68,408.07Zm-20.85-79.61v73.13a2.48,2.48,0,0,0,2.48,2.48h18.37a2.48,2.48,0,0,0,2.48-2.48V328.46Z" style="fill: rgb(37, 159, 128); transform-origin: 158.495px 366.265px;" id="el97lymwuegm8" class="animable"></path></g></g><g id="eluncm11x8ll"><g style="opacity: 0.5; transform-origin: 88.82px 366.265px;" class="animable"><path d="M98,408.07H79.63a6.49,6.49,0,0,1-6.48-6.48V324.46h31.34v77.13A6.49,6.49,0,0,1,98,408.07ZM77.15,328.46v73.13a2.49,2.49,0,0,0,2.48,2.48H98a2.49,2.49,0,0,0,2.48-2.48V328.46Z" style="fill: rgb(255, 255, 255); transform-origin: 88.82px 366.265px;" id="elrhg064qswp" class="animable"></path><g id="elmu1fqrmhcum"><g style="opacity: 0.3; transform-origin: 88.82px 366.265px;" class="animable"><path d="M98,408.07H79.63a6.49,6.49,0,0,1-6.48-6.48V324.46h31.34v77.13A6.49,6.49,0,0,1,98,408.07ZM77.15,328.46v73.13a2.49,2.49,0,0,0,2.48,2.48H98a2.49,2.49,0,0,0,2.48-2.48V328.46Z" style="fill: rgb(255, 255, 255); transform-origin: 88.82px 366.265px;" id="eltzsnibzouil" class="animable"></path></g></g></g></g><g id="eluyaeirz8lhn"><g style="opacity: 0.5; transform-origin: 158.495px 366.265px;" class="animable"><path d="M167.68,408.07H149.31a6.49,6.49,0,0,1-6.48-6.48V324.46h31.33v77.13A6.48,6.48,0,0,1,167.68,408.07Zm-20.85-79.61v73.13a2.48,2.48,0,0,0,2.48,2.48h18.37a2.48,2.48,0,0,0,2.48-2.48V328.46Z" style="fill: rgb(255, 255, 255); transform-origin: 158.495px 366.265px;" id="el0drmbzwgstj7" class="animable"></path><g id="el17u5g1qy1xr"><g style="opacity: 0.3; transform-origin: 158.495px 366.265px;" class="animable"><path d="M167.68,408.07H149.31a6.49,6.49,0,0,1-6.48-6.48V324.46h31.33v77.13A6.48,6.48,0,0,1,167.68,408.07Zm-20.85-79.61v73.13a2.48,2.48,0,0,0,2.48,2.48h18.37a2.48,2.48,0,0,0,2.48-2.48V328.46Z" style="fill: rgb(255, 255, 255); transform-origin: 158.495px 366.265px;" id="elqq4wq0osle" class="animable"></path></g></g></g></g><rect x="98.88" y="301.93" width="76.37" height="28.69" style="fill: rgb(37, 159, 128); transform-origin: 137.065px 316.275px;" id="el07h9vkscawro" class="animable"></rect><g id="elqqhpaw6slag"><rect x="98.88" y="301.93" width="76.37" height="28.69" style="fill: rgb(255, 255, 255); opacity: 0.8; transform-origin: 137.065px 316.275px;" class="animable"></rect></g><rect x="72.56" y="301.93" width="31.3" height="28.69" style="fill: rgb(37, 159, 128); transform-origin: 88.21px 316.275px;" id="elhcwtlrbgpl" class="animable"></rect><g id="elujl6pzlxls"><rect x="72.56" y="301.93" width="31.3" height="28.69" style="fill: rgb(255, 255, 255); opacity: 0.7; transform-origin: 88.21px 316.275px;" class="animable"></rect></g><rect x="104.53" y="295.35" width="74.59" height="8.36" style="fill: rgb(37, 159, 128); transform-origin: 141.825px 299.53px;" id="el0nky788s8w1c" class="animable"></rect><g id="ellsazwb1y55n"><rect x="104.53" y="295.35" width="74.59" height="8.36" style="fill: rgb(255, 255, 255); opacity: 0.9; transform-origin: 141.825px 299.53px;" class="animable"></rect></g><rect x="68.68" y="295.35" width="37.01" height="8.36" style="fill: rgb(37, 159, 128); transform-origin: 87.185px 299.53px;" id="elia52ufw2e" class="animable"></rect><g id="elkxx74zx36yr"><rect x="68.68" y="295.35" width="37.01" height="8.36" style="fill: rgb(255, 255, 255); opacity: 0.8; transform-origin: 87.185px 299.53px;" class="animable"></rect></g><rect x="109.99" y="308.5" width="59.12" height="16.5" style="fill: rgb(37, 159, 128); transform-origin: 139.55px 316.75px;" id="elgvi9q8gkpqf" class="animable"></rect><g id="ellb9w4x15v4n"><rect x="109.99" y="308.5" width="59.12" height="16.5" style="fill: rgb(255, 255, 255); opacity: 0.7; transform-origin: 139.55px 316.75px;" class="animable"></rect></g><path d="M143.55,317a2.28,2.28,0,1,0,0-4.56h-3a2.28,2.28,0,0,0,0,4.56Z" style="fill: rgb(37, 159, 128); transform-origin: 142.05px 314.72px;" id="el24vhjmrnvxf" class="animable"></path><g id="elzsa8loj4zwa"><path d="M143.55,317a2.28,2.28,0,1,0,0-4.56h-3a2.28,2.28,0,0,0,0,4.56Z" style="fill: rgb(255, 255, 255); opacity: 0.3; transform-origin: 142.05px 314.72px;" class="animable"></path></g><path d="M145.83,314.75a2.28,2.28,0,1,1-2.28-2.28A2.28,2.28,0,0,1,145.83,314.75Z" style="fill: rgb(37, 159, 128); transform-origin: 143.55px 314.75px;" id="elgwqkptl3an8" class="animable"></path><g id="ele19jqmuy0b9"><path d="M145.83,314.75a2.28,2.28,0,1,1-2.28-2.28A2.28,2.28,0,0,1,145.83,314.75Z" style="fill: rgb(255, 255, 255); opacity: 0.5; transform-origin: 143.55px 314.75px;" class="animable"></path></g><path d="M136.28,291.13h.86c1,0,1.74-.67,1.57-1.5l-7.49-38.12a2.18,2.18,0,0,0-2.17-1.51H69.47l8.09,41.13Z" style="fill: rgb(38, 50, 56); transform-origin: 104.102px 270.564px;" id="el9wrzzgwlmr" class="animable"></path><g id="elxmyvnyvy9r"><path d="M136.28,291.13h.86c1,0,1.74-.67,1.57-1.5l-7.49-38.12a2.18,2.18,0,0,0-2.17-1.51H69.47l8.09,41.13Z" style="fill: rgb(255, 255, 255); opacity: 0.8; transform-origin: 104.102px 270.564px;" class="animable"></path></g><path d="M78,291.13h0a2.67,2.67,0,0,1-2.66-1.85L68,251.85c-.2-1,.66-1.85,1.93-1.85h0a2.68,2.68,0,0,1,2.66,1.85l7.36,37.43C80.12,290.31,79.25,291.13,78,291.13Z" style="fill: rgb(38, 50, 56); transform-origin: 73.9712px 270.565px;" id="elqbe71po9jf" class="animable"></path><g id="el81kod45yrwn"><path d="M78,291.13h0a2.67,2.67,0,0,1-2.66-1.85L68,251.85c-.2-1,.66-1.85,1.93-1.85h0a2.68,2.68,0,0,1,2.66,1.85l7.36,37.43C80.12,290.31,79.25,291.13,78,291.13Z" style="fill: rgb(255, 255, 255); opacity: 0.6; transform-origin: 73.9712px 270.565px;" class="animable"></path></g><path d="M111.68,291.13h64.64a0,0,0,0,1,0,0v.58a3.68,3.68,0,0,1-3.68,3.68h-61a0,0,0,0,1,0,0v-4.27A0,0,0,0,1,111.68,291.13Z" style="fill: rgb(38, 50, 56); transform-origin: 143.98px 293.255px;" id="elns7te291ith" class="animable"></path><g id="elz1avka38bk"><path d="M111.68,291.13h64.64a0,0,0,0,1,0,0v.58a3.68,3.68,0,0,1-3.68,3.68h-61a0,0,0,0,1,0,0v-4.27A0,0,0,0,1,111.68,291.13Z" style="fill: rgb(255, 255, 255); opacity: 0.7; transform-origin: 143.98px 293.255px;" class="animable"></path></g><path d="M77.82,291.13H123a0,0,0,0,1,0,0v.58a3.68,3.68,0,0,1-3.68,3.68H81.5a3.68,3.68,0,0,1-3.68-3.68v-.58a0,0,0,0,1,0,0Z" style="fill: rgb(38, 50, 56); transform-origin: 100.41px 293.26px;" id="eliqabzof7bol" class="animable"></path><g id="elftcugdbpvf8"><path d="M77.82,291.13H123a0,0,0,0,1,0,0v.58a3.68,3.68,0,0,1-3.68,3.68H81.5a3.68,3.68,0,0,1-3.68-3.68v-.58a0,0,0,0,1,0,0Z" style="fill: rgb(255, 255, 255); opacity: 0.5; transform-origin: 100.41px 293.26px;" class="animable"></path></g><g id="el1dshku1veld"><path d="M151.58,291.13a1.57,1.57,0,0,0,1.69,1.34h7a1.57,1.57,0,0,0,1.69-1.34Z" style="opacity: 0.2; transform-origin: 156.77px 291.803px;" class="animable"></path></g><polygon points="134.13 287.9 83.38 287.9 76.52 253 127.27 253 134.13 287.9" style="fill: rgb(255, 255, 255); transform-origin: 105.325px 270.45px;" id="el47yjlrk3gyw" class="animable"></polygon><path d="M97.57,285.48l4.06-5.38s-14.49,3.15-14.19-4,10.5.87,12.73-2.63-14.1-6.5-9.1-12.84,9.87,8.19,13.85,5.68-4.65-9,0-12,3.33,7.33,6,6.83-1-7.59,8.33-7.38c0,0,2.83,6.89-2.5,10.3s7.11,2.42,5.47,7.08-8-2.33-9,0,3.17,3.94,8.17,5,2.33,7.61-5.5,4-11.5-3.23-2.67,1.49-3.46,8.74-7.17,1.89c-1.15-2.14-1.88-5.6-4.44-1.14L99.24,287Z" style="fill: rgb(37, 159, 128); transform-origin: 105.682px 270.467px;" id="elpvdtr7cu2t" class="animable"></path><path d="M102.44,251.22a.77.77,0,1,1-.75-.6A.69.69,0,0,1,102.44,251.22Z" style="fill: rgb(38, 50, 56); transform-origin: 101.689px 251.388px;" id="elquibzpp3rmb" class="animable"></path></g><defs>     <filter id="active" height="200%">         <feMorphology in="SourceAlpha" result="DILATED" operator="dilate" radius="2"></feMorphology>                <feFlood flood-color="#32DFEC" flood-opacity="1" result="PINK"></feFlood>        <feComposite in="PINK" in2="DILATED" operator="in" result="OUTLINE"></feComposite>        <feMerge>            <feMergeNode in="OUTLINE"></feMergeNode>            <feMergeNode in="SourceGraphic"></feMergeNode>        </feMerge>    </filter>    <filter id="hover" height="200%">        <feMorphology in="SourceAlpha" result="DILATED" operator="dilate" radius="2"></feMorphology>                <feFlood flood-color="#ff0000" flood-opacity="0.5" result="PINK"></feFlood>        <feComposite in="PINK" in2="DILATED" operator="in" result="OUTLINE"></feComposite>        <feMerge>            <feMergeNode in="OUTLINE"></feMergeNode>            <feMergeNode in="SourceGraphic"></feMergeNode>        </feMerge>            <feColorMatrix type="matrix" values="0   0   0   0   0                0   1   0   0   0                0   0   0   0   0                0   0   0   1   0 "></feColorMatrix>    </filter></defs>

</svg>